<mxfile host="app.diagrams.net" agent="Mozilla/5.0 (Windows NT 10.0; Win64; x64) AppleWebKit/537.36 (KHTML, like Gecko) Chrome/134.0.0.0 Safari/537.36" version="26.1.1">
  <diagram name="Page-1" id="skr5MEue6b4jjSRTevu9">
    <mxGraphModel dx="1434" dy="738" grid="1" gridSize="10" guides="1" tooltips="1" connect="1" arrows="1" fold="1" page="1" pageScale="1" pageWidth="850" pageHeight="1100" math="0" shadow="0">
      <root>
        <mxCell id="0" />
        <mxCell id="1" parent="0" />
        <mxCell id="ToDBMi3qX1P-D6Ps8IhF-1" value="pfsense" style="ellipse;whiteSpace=wrap;html=1;aspect=fixed;" vertex="1" parent="1">
          <mxGeometry x="170" y="280" width="80" height="80" as="geometry" />
        </mxCell>
        <mxCell id="ToDBMi3qX1P-D6Ps8IhF-2" value="" style="endArrow=classic;startArrow=classic;html=1;rounded=0;" edge="1" parent="1">
          <mxGeometry width="50" height="50" relative="1" as="geometry">
            <mxPoint x="209.5" y="280" as="sourcePoint" />
            <mxPoint x="209.5" y="170" as="targetPoint" />
          </mxGeometry>
        </mxCell>
        <mxCell id="ToDBMi3qX1P-D6Ps8IhF-3" value="internet" style="ellipse;shape=cloud;whiteSpace=wrap;html=1;" vertex="1" parent="1">
          <mxGeometry x="150" y="90" width="120" height="80" as="geometry" />
        </mxCell>
        <mxCell id="ToDBMi3qX1P-D6Ps8IhF-4" value="" style="endArrow=classic;startArrow=classic;html=1;rounded=0;" edge="1" parent="1">
          <mxGeometry width="50" height="50" relative="1" as="geometry">
            <mxPoint x="250" y="310" as="sourcePoint" />
            <mxPoint x="410" y="250" as="targetPoint" />
          </mxGeometry>
        </mxCell>
        <mxCell id="ToDBMi3qX1P-D6Ps8IhF-5" value="Attack Interface&lt;div&gt;192.168.1.1/24&lt;/div&gt;&lt;div&gt;&lt;br&gt;&lt;/div&gt;&lt;div&gt;VMs:&lt;/div&gt;&lt;div&gt;Kali Linux&lt;br&gt;&lt;div&gt;&lt;br&gt;&lt;/div&gt;&lt;/div&gt;" style="ellipse;whiteSpace=wrap;html=1;aspect=fixed;" vertex="1" parent="1">
          <mxGeometry x="400" y="160" width="120" height="120" as="geometry" />
        </mxCell>
        <mxCell id="ToDBMi3qX1P-D6Ps8IhF-6" value="Defense Interface&lt;div&gt;192.168.2.1/24&lt;/div&gt;&lt;div&gt;&lt;br&gt;&lt;/div&gt;&lt;div&gt;VMs:&lt;/div&gt;&lt;div&gt;&lt;div&gt;Security Onion&lt;/div&gt;&lt;/div&gt;&lt;div&gt;ELK Server&lt;/div&gt;&lt;div&gt;Wazuh Server&lt;/div&gt;" style="ellipse;whiteSpace=wrap;html=1;aspect=fixed;" vertex="1" parent="1">
          <mxGeometry x="400" y="290" width="120" height="120" as="geometry" />
        </mxCell>
        <mxCell id="ToDBMi3qX1P-D6Ps8IhF-7" value="Victim Interface&lt;div&gt;192.168.3.1/24&lt;/div&gt;&lt;div&gt;&lt;br&gt;&lt;/div&gt;&lt;div&gt;VMs:&lt;/div&gt;&lt;div&gt;&lt;div&gt;Windows 11 Enterprise&lt;/div&gt;&lt;/div&gt;&lt;div&gt;Windows DC Server 2022&lt;/div&gt;" style="ellipse;whiteSpace=wrap;html=1;aspect=fixed;" vertex="1" parent="1">
          <mxGeometry x="310" y="475" width="150" height="150" as="geometry" />
        </mxCell>
        <mxCell id="ToDBMi3qX1P-D6Ps8IhF-8" value="Attack Interface&lt;div&gt;192.168.4.1/24&lt;/div&gt;&lt;div&gt;&lt;br&gt;&lt;/div&gt;&lt;div&gt;VMs:&lt;/div&gt;&lt;div&gt;&lt;div&gt;Splunk&lt;/div&gt;&lt;/div&gt;&lt;div&gt;Technetium DNS&lt;/div&gt;" style="ellipse;whiteSpace=wrap;html=1;aspect=fixed;" vertex="1" parent="1">
          <mxGeometry x="160" y="435" width="120" height="120" as="geometry" />
        </mxCell>
        <mxCell id="ToDBMi3qX1P-D6Ps8IhF-9" value="" style="endArrow=classic;startArrow=classic;html=1;rounded=0;entryX=0.05;entryY=0.4;entryDx=0;entryDy=0;entryPerimeter=0;exitX=1;exitY=0.5;exitDx=0;exitDy=0;" edge="1" parent="1" source="ToDBMi3qX1P-D6Ps8IhF-1" target="ToDBMi3qX1P-D6Ps8IhF-6">
          <mxGeometry width="50" height="50" relative="1" as="geometry">
            <mxPoint x="260" y="320" as="sourcePoint" />
            <mxPoint x="420" y="260" as="targetPoint" />
          </mxGeometry>
        </mxCell>
        <mxCell id="ToDBMi3qX1P-D6Ps8IhF-11" value="" style="endArrow=classic;startArrow=classic;html=1;rounded=0;exitX=1;exitY=0.5;exitDx=0;exitDy=0;" edge="1" parent="1" target="ToDBMi3qX1P-D6Ps8IhF-7">
          <mxGeometry width="50" height="50" relative="1" as="geometry">
            <mxPoint x="240" y="342" as="sourcePoint" />
            <mxPoint x="396" y="360" as="targetPoint" />
            <Array as="points">
              <mxPoint x="290" y="410" />
            </Array>
          </mxGeometry>
        </mxCell>
        <mxCell id="ToDBMi3qX1P-D6Ps8IhF-12" value="" style="endArrow=classic;startArrow=classic;html=1;rounded=0;entryX=0.5;entryY=1;entryDx=0;entryDy=0;exitX=0.5;exitY=0;exitDx=0;exitDy=0;" edge="1" parent="1" source="ToDBMi3qX1P-D6Ps8IhF-8" target="ToDBMi3qX1P-D6Ps8IhF-1">
          <mxGeometry width="50" height="50" relative="1" as="geometry">
            <mxPoint x="132" y="380" as="sourcePoint" />
            <mxPoint x="288" y="398" as="targetPoint" />
          </mxGeometry>
        </mxCell>
        <mxCell id="ToDBMi3qX1P-D6Ps8IhF-13" value="" style="endArrow=classic;html=1;rounded=0;entryX=0.075;entryY=0.817;entryDx=0;entryDy=0;entryPerimeter=0;" edge="1" parent="1" target="ToDBMi3qX1P-D6Ps8IhF-6">
          <mxGeometry width="50" height="50" relative="1" as="geometry">
            <mxPoint x="290" y="410" as="sourcePoint" />
            <mxPoint x="340" y="360" as="targetPoint" />
          </mxGeometry>
        </mxCell>
        <mxCell id="ToDBMi3qX1P-D6Ps8IhF-14" value="Span Port" style="text;html=1;align=center;verticalAlign=middle;resizable=0;points=[];autosize=1;strokeColor=none;fillColor=none;rotation=0;" vertex="1" parent="1">
          <mxGeometry x="310" y="370" width="80" height="30" as="geometry" />
        </mxCell>
      </root>
    </mxGraphModel>
  </diagram>
</mxfile>
